<mxfile host="65bd71144e">
    <diagram id="A5RqLdvXW_VitP2dHY6t" name="Page-1">
        <mxGraphModel dx="1898" dy="815" grid="1" gridSize="10" guides="1" tooltips="1" connect="1" arrows="1" fold="1" page="1" pageScale="1" pageWidth="850" pageHeight="1100" math="0" shadow="0">
            <root>
                <mxCell id="0"/>
                <mxCell id="1" parent="0"/>
                <mxCell id="4" value="" style="edgeStyle=none;html=1;" edge="1" parent="1" source="2" target="3">
                    <mxGeometry relative="1" as="geometry"/>
                </mxCell>
                <mxCell id="2" value="inicio" style="ellipse;whiteSpace=wrap;html=1;" vertex="1" parent="1">
                    <mxGeometry x="270" y="10" width="120" height="80" as="geometry"/>
                </mxCell>
                <mxCell id="6" value="" style="edgeStyle=none;html=1;" edge="1" parent="1" source="3" target="5">
                    <mxGeometry relative="1" as="geometry"/>
                </mxCell>
                <mxCell id="3" value="a,b,c" style="whiteSpace=wrap;html=1;" vertex="1" parent="1">
                    <mxGeometry x="270" y="110" width="120" height="60" as="geometry"/>
                </mxCell>
                <mxCell id="8" value="" style="edgeStyle=none;html=1;" edge="1" parent="1" source="5" target="7">
                    <mxGeometry relative="1" as="geometry"/>
                </mxCell>
                <mxCell id="5" value="discrimiante =&amp;nbsp;&lt;span style=&quot;color: var(--vscode-textPreformat-foreground); background-color: initial;&quot;&gt;(&lt;/span&gt;&lt;span style=&quot;color: var(--vscode-textPreformat-foreground); background-color: initial;&quot; class=&quot;hljs-selector-tag&quot;&gt;b&lt;/span&gt;&lt;span style=&quot;color: var(--vscode-textPreformat-foreground); background-color: initial;&quot;&gt;^&lt;/span&gt;&lt;span style=&quot;color: var(--vscode-textPreformat-foreground); background-color: initial;&quot; class=&quot;hljs-number&quot;&gt;2&lt;/span&gt;&lt;span style=&quot;color: var(--vscode-textPreformat-foreground); background-color: initial;&quot;&gt; - &lt;/span&gt;&lt;span style=&quot;color: var(--vscode-textPreformat-foreground); background-color: initial;&quot; class=&quot;hljs-number&quot;&gt;4&lt;/span&gt;&lt;span style=&quot;color: var(--vscode-textPreformat-foreground); background-color: initial;&quot;&gt;ac)&lt;/span&gt;" style="whiteSpace=wrap;html=1;" vertex="1" parent="1">
                    <mxGeometry x="270" y="190" width="120" height="60" as="geometry"/>
                </mxCell>
                <mxCell id="10" value="" style="edgeStyle=none;html=1;entryX=0.5;entryY=0;entryDx=0;entryDy=0;" edge="1" parent="1" source="7" target="9">
                    <mxGeometry relative="1" as="geometry">
                        <Array as="points">
                            <mxPoint x="515" y="310"/>
                        </Array>
                    </mxGeometry>
                </mxCell>
                <mxCell id="14" value="" style="edgeStyle=none;html=1;entryX=0.5;entryY=0;entryDx=0;entryDy=0;" edge="1" parent="1" source="7" target="13">
                    <mxGeometry relative="1" as="geometry">
                        <Array as="points">
                            <mxPoint x="180" y="310"/>
                        </Array>
                    </mxGeometry>
                </mxCell>
                <mxCell id="7" value="d&amp;gt;0" style="rhombus;whiteSpace=wrap;html=1;" vertex="1" parent="1">
                    <mxGeometry x="290" y="270" width="80" height="80" as="geometry"/>
                </mxCell>
                <mxCell id="12" value="" style="edgeStyle=none;html=1;" edge="1" parent="1" source="9" target="11">
                    <mxGeometry relative="1" as="geometry"/>
                </mxCell>
                <mxCell id="27" style="edgeStyle=none;html=1;" edge="1" parent="1" source="9">
                    <mxGeometry relative="1" as="geometry">
                        <mxPoint x="545" y="360" as="targetPoint"/>
                    </mxGeometry>
                </mxCell>
                <mxCell id="9" value="&lt;pre&gt;&lt;code class=&quot;!whitespace-pre hljs language-css&quot;&gt;Calcular las raíces reales distintas&lt;/code&gt;&lt;/pre&gt;&lt;pre&gt;&lt;code class=&quot;!whitespace-pre hljs language-css&quot;&gt; (-&lt;span class=&quot;hljs-selector-tag&quot;&gt;b&lt;/span&gt; + sqrt(discriminante)) / &lt;span class=&quot;hljs-number&quot;&gt;2&lt;/span&gt;a&lt;/code&gt;&lt;/pre&gt;&lt;pre&gt;&lt;code class=&quot;!whitespace-pre hljs language-css&quot;&gt;(-&lt;span class=&quot;hljs-selector-tag&quot;&gt;b&lt;/span&gt; - sqrt(discriminante)) / &lt;span class=&quot;hljs-number&quot;&gt;2&lt;/span&gt;a&lt;/code&gt;&lt;/pre&gt;" style="whiteSpace=wrap;html=1;" vertex="1" parent="1">
                    <mxGeometry x="380" y="360" width="270" height="150" as="geometry"/>
                </mxCell>
                <mxCell id="11" value="&lt;pre&gt;&lt;code class=&quot;!whitespace-pre hljs language-css&quot;&gt;raíces calculadas&lt;/code&gt;&lt;/pre&gt;" style="whiteSpace=wrap;html=1;" vertex="1" parent="1">
                    <mxGeometry x="455" y="570" width="120" height="60" as="geometry"/>
                </mxCell>
                <mxCell id="16" value="" style="edgeStyle=none;html=1;entryX=0.5;entryY=0;entryDx=0;entryDy=0;exitX=0;exitY=0.5;exitDx=0;exitDy=0;" edge="1" parent="1" source="13" target="15">
                    <mxGeometry relative="1" as="geometry">
                        <Array as="points">
                            <mxPoint x="60" y="435"/>
                        </Array>
                    </mxGeometry>
                </mxCell>
                <mxCell id="18" value="" style="edgeStyle=none;html=1;" edge="1" parent="1" source="13" target="17">
                    <mxGeometry relative="1" as="geometry">
                        <Array as="points">
                            <mxPoint x="280" y="435"/>
                        </Array>
                    </mxGeometry>
                </mxCell>
                <mxCell id="13" value="d=0" style="rhombus;whiteSpace=wrap;html=1;" vertex="1" parent="1">
                    <mxGeometry x="140" y="395" width="80" height="80" as="geometry"/>
                </mxCell>
                <mxCell id="24" value="" style="edgeStyle=none;html=1;" edge="1" parent="1" source="15" target="23">
                    <mxGeometry relative="1" as="geometry"/>
                </mxCell>
                <mxCell id="15" value="d&amp;lt;0" style="rhombus;whiteSpace=wrap;html=1;" vertex="1" parent="1">
                    <mxGeometry x="20" y="500" width="80" height="80" as="geometry"/>
                </mxCell>
                <mxCell id="22" value="" style="edgeStyle=none;html=1;" edge="1" parent="1" source="17" target="21">
                    <mxGeometry relative="1" as="geometry"/>
                </mxCell>
                <mxCell id="17" value="&lt;pre&gt;&lt;code class=&quot;!whitespace-pre hljs language-css&quot;&gt;Calcular la raíz&lt;/code&gt;&lt;/pre&gt;&lt;pre&gt;&lt;code class=&quot;!whitespace-pre hljs language-css&quot;&gt; real doble &lt;/code&gt;&lt;/pre&gt;&lt;pre&gt;&lt;code class=&quot;!whitespace-pre hljs language-css&quot;&gt;-&lt;span class=&quot;hljs-selector-tag&quot;&gt;b&lt;/span&gt; / &lt;span class=&quot;hljs-number&quot;&gt;2&lt;/span&gt;a&lt;/code&gt;&lt;/pre&gt;" style="whiteSpace=wrap;html=1;" vertex="1" parent="1">
                    <mxGeometry x="220" y="520" width="120" height="60" as="geometry"/>
                </mxCell>
                <mxCell id="21" value="&lt;meta charset=&quot;utf-8&quot;&gt;&lt;pre&gt;&lt;code class=&quot;!whitespace-pre hljs language-css&quot;&gt;raíz calculada&lt;/code&gt;&lt;/pre&gt;" style="whiteSpace=wrap;html=1;" vertex="1" parent="1">
                    <mxGeometry x="220" y="650" width="120" height="60" as="geometry"/>
                </mxCell>
                <mxCell id="26" value="" style="edgeStyle=none;html=1;" edge="1" parent="1" source="23" target="25">
                    <mxGeometry relative="1" as="geometry"/>
                </mxCell>
                <mxCell id="23" value="&lt;pre&gt;&lt;code class=&quot;!whitespace-pre hljs language-css&quot;&gt; Calcular las raíces &lt;/code&gt;&lt;/pre&gt;&lt;pre&gt;&lt;code class=&quot;!whitespace-pre hljs language-css&quot;&gt;complejas &lt;/code&gt;&lt;/pre&gt;&lt;pre&gt;&lt;code class=&quot;!whitespace-pre hljs language-css&quot;&gt;-&lt;span class=&quot;hljs-selector-tag&quot;&gt;b&lt;/span&gt; / &lt;span class=&quot;hljs-number&quot;&gt;2&lt;/span&gt;a ± &lt;span class=&quot;hljs-selector-tag&quot;&gt;i&lt;/span&gt; sqrt(-discriminante) / &lt;span class=&quot;hljs-number&quot;&gt;2&lt;/span&gt;a&lt;/code&gt;&lt;/pre&gt;" style="whiteSpace=wrap;html=1;" vertex="1" parent="1">
                    <mxGeometry x="-87.5" y="620" width="295" height="150" as="geometry"/>
                </mxCell>
                <mxCell id="25" value="&lt;meta charset=&quot;utf-8&quot;&gt;&lt;pre&gt;&lt;code class=&quot;!whitespace-pre hljs language-css&quot;&gt;raíces calculadas&lt;/code&gt;&lt;/pre&gt;" style="whiteSpace=wrap;html=1;" vertex="1" parent="1">
                    <mxGeometry y="820" width="120" height="60" as="geometry"/>
                </mxCell>
            </root>
        </mxGraphModel>
    </diagram>
</mxfile>